<?xml version="1.0" encoding="iso-8859-1"?>
<!-- Generator: Adobe Illustrator 19.0.0, SVG Export Plug-In . SVG Version: 6.00 Build 0)  -->
<svg version="1.1" id="Layer_1" xmlns="http://www.w3.org/2000/svg" xmlns:xlink="http://www.w3.org/1999/xlink" x="0px" y="0px"
	 viewBox="0 0 512 512" style="enable-background:new 0 0 512 512;" xml:space="preserve">
<g>
	<g>
		<path d="M256,0C161.899,0,85.333,76.565,85.333,170.667c0,104,146.731,322.667,152.981,331.925
			c3.947,5.867,10.56,9.387,17.621,9.408H256c7.061,0,13.653-3.477,17.621-9.301c6.251-9.152,153.045-225.344,153.045-332.032
			C426.667,76.565,350.101,0,256,0z M256,128c-23.531,0-42.667,19.136-42.667,42.667c0,11.776-9.557,21.333-21.333,21.333
			s-21.333-9.557-21.333-21.333c0-47.061,38.272-85.333,85.333-85.333c11.776,0,21.333,9.557,21.333,21.333S267.776,128,256,128z"/>
	</g>
</g>
<g>
</g>
<g>
</g>
<g>
</g>
<g>
</g>
<g>
</g>
<g>
</g>
<g>
</g>
<g>
</g>
<g>
</g>
<g>
</g>
<g>
</g>
<g>
</g>
<g>
</g>
<g>
</g>
<g>
</g>
</svg>
